<svg xmlns="http://www.w3.org/2000/svg" viewBox="0 0 635.58 379.92"><defs><style>.cls-1{fill:#fff;}</style></defs><title>master_logo</title><g id="Layer_2" data-name="Layer 2"><g id="Capa_1" data-name="Capa 1"><path id="_Compound_Path_" data-name="&lt;Compound Path&gt;" class="cls-1" d="M378.56,0H259.34a59.6,59.6,0,0,0-59.62,59.61V178.84a59.6,59.6,0,0,0,59.62,59.62H378.56a59.6,59.6,0,0,0,59.62-59.62V59.61A59.6,59.6,0,0,0,378.56,0ZM318.95,47.68a35.77,35.77,0,1,1-35.77,35.77A35.77,35.77,0,0,1,318.95,47.68Zm95.38,131.15a35.76,35.76,0,0,1-35.77,35.77H259.34a35.76,35.76,0,0,1-35.77-35.77V110.59a108.26,108.26,0,0,0,190.76,0Z"/><g id="_Group_" data-name="&lt;Group&gt;"><path id="_Compound_Path_2" data-name="&lt;Compound Path&gt;" class="cls-1" d="M27.91,361.92a17.12,17.12,0,0,1-13.43,6.61C7.1,368.53,0,363.89,0,350.25c0-14.2,8.16-19.05,15.68-19.05,5.77,0,9.49,1.76,12.23,4.57V319h1.2c2,0,2.39.42,2.39,3.38v45.84H29.67c-1.48,0-1.69-.7-1.76-4.08Zm0-3.59V338.93a14.66,14.66,0,0,0-11.67-5c-6.19,0-12.66,3.38-12.66,16.17,0,12.16,5.77,15.68,11.25,15.68C20.81,365.79,24.75,362.62,27.91,358.33Z"/><path id="_Compound_Path_3" data-name="&lt;Compound Path&gt;" class="cls-1" d="M56.53,365.64c5.84,0,9.42-1.83,11.39-3.8h1.55v2.6c-2.6,2-6.61,4.08-13.29,4.08-11,0-17.16-7.1-17.16-18.49s6.89-18.84,16.24-18.84c9,0,15,5.2,15,17.16,0,.7-.07,1.55-.07,1.69H42.61C42.61,360.3,47.39,365.64,56.53,365.64ZM42.68,347.36H66.8c-.21-9.77-4.71-13.5-11.53-13.5S43.53,338.36,42.68,347.36Z"/><path id="_Compound_Path_4" data-name="&lt;Compound Path&gt;" class="cls-1" d="M75,365.08V362.2h1.41c1.76,1.62,5,3.59,10.27,3.59,6.75,0,10-2.81,10-7.87,0-4.29-2.39-6-9.84-7.24-7-1.12-11.46-3.59-11.46-9.77s5-9.7,12.3-9.7c5.34,0,8.58,1.41,10.62,2.74v2.88H96.82c-2-1.62-4.43-2.88-9.14-2.88-6,0-9.07,2.25-9.07,6.68,0,4.22,2.46,5.84,9.56,7,7.66,1.2,11.88,3.52,11.88,10,0,6.75-4.15,10.9-13.29,10.9C80.51,368.53,77.07,366.63,75,365.08Z"/><path id="_Compound_Path_5" data-name="&lt;Compound Path&gt;" class="cls-1" d="M107.16,323.6a2.39,2.39,0,0,1,4.78,0,2.39,2.39,0,0,1-4.78,0Zm.56,44.65V331.61h1.13c2.11,0,2.39.42,2.39,3.8v32.84Z"/><path id="_Compound_Path_6" data-name="&lt;Compound Path&gt;" class="cls-1" d="M150.4,367.82c0,8.09-7,12.09-15.54,12.09-6.26,0-11.18-1.48-14-3.23v-2.74h1.41c2.32,1.83,6.75,3.23,12.16,3.23,6.82,0,12.38-2.6,12.38-9.56V361.5A17.51,17.51,0,0,1,133.25,368c-7.1,0-14.34-4.64-14.34-18,0-13.85,8.16-18.77,15.75-18.77,5.63,0,9.49,1.83,12.16,4.57.21-2.18.56-4.15,2.46-4.15h1.13Zm-3.59-10V339a14.59,14.59,0,0,0-11.53-5.06c-6,0-12.8,3.16-12.8,15.89,0,12,5.77,15.4,11.25,15.4C139.65,365.22,143.72,362,146.82,357.84Z"/><path id="_Compound_Path_7" data-name="&lt;Compound Path&gt;" class="cls-1" d="M164,337.45c4.15-3.3,9.63-6.26,16.1-6.26,5.13,0,9.49,2.11,9.49,9.77v27.28h-3.52V341.39c0-5.84-3.16-7.24-7.31-7.24-5.41,0-10.62,3-14.77,6.19v27.91h-3.52V331.61h1.62c1.55,0,1.9.42,1.9,3.66Z"/><path id="_Compound_Path_8" data-name="&lt;Compound Path&gt;" class="cls-1" d="M196.67,349.89c0-11.53,6.89-18.7,17-18.7s17.09,7.17,17.09,18.7-6.82,18.63-17.09,18.63S196.67,361.5,196.67,349.89Zm30.52,0c0-10-5.13-16-13.5-16s-13.43,6-13.43,16,5.13,15.89,13.43,15.89S227.19,359.95,227.19,349.89Z"/><path id="_Compound_Path_9" data-name="&lt;Compound Path&gt;" class="cls-1" d="M241.67,337.45c4.15-3.3,9.63-6.26,16.1-6.26,5.13,0,9.49,2.11,9.49,9.77v27.28h-3.52V341.39c0-5.84-3.16-7.24-7.31-7.24-5.41,0-10.62,3-14.77,6.19v27.91h-3.52V331.61h1.62c1.55,0,1.9.42,1.9,3.66Z"/><path id="_Compound_Path_10" data-name="&lt;Compound Path&gt;" class="cls-1" d="M274.44,365.08V362.2h1.41c1.76,1.62,5,3.59,10.27,3.59,6.75,0,10-2.81,10-7.87,0-4.29-2.39-6-9.84-7.24-7-1.12-11.46-3.59-11.46-9.77s5-9.7,12.3-9.7c5.34,0,8.58,1.41,10.62,2.74v2.88h-1.41c-2-1.62-4.43-2.88-9.14-2.88-6,0-9.07,2.25-9.07,6.68,0,4.22,2.46,5.84,9.56,7,7.66,1.2,11.88,3.52,11.88,10,0,6.75-4.15,10.9-13.29,10.9C280,368.53,276.55,366.63,274.44,365.08Z"/><path id="_Compound_Path_11" data-name="&lt;Compound Path&gt;" class="cls-1" d="M304.33,349.82c0-11.6,7.17-18.63,17.37-18.63,6,0,9.35,1.83,11.46,3.52v2.81h-1.83c-1.69-1.69-4.5-3.52-9.7-3.52-8.16,0-13.71,5.84-13.71,15.82s5.13,15.89,13.71,15.89c5.7,0,8.86-2.32,10.55-4.22h1.62v2.67c-2,2-6,4.36-12.3,4.36C310.72,368.53,304.33,361.36,304.33,349.82Z"/><path id="_Compound_Path_12" data-name="&lt;Compound Path&gt;" class="cls-1" d="M344.33,337.94c2.81-3.37,6.82-6.61,12-6.61a5.21,5.21,0,0,1,1.69.21v2.88s-.91-.07-1.55-.07c-5.34,0-9.21,3.45-12.16,6.89v27h-3.52V331.61h1.62c1.55,0,1.9.42,1.9,4Z"/><path id="_Compound_Path_13" data-name="&lt;Compound Path&gt;" class="cls-1" d="M377.59,365.64c5.84,0,9.42-1.83,11.39-3.8h1.55v2.6c-2.6,2-6.61,4.08-13.29,4.08-11,0-17.16-7.1-17.16-18.49s6.89-18.84,16.24-18.84c9,0,15,5.2,15,17.16,0,.7-.07,1.55-.07,1.69H363.67C363.67,360.3,368.45,365.64,377.59,365.64Zm-13.85-18.28h24.12c-.21-9.77-4.71-13.5-11.53-13.5S364.59,338.36,363.74,347.36Z"/><path id="_Compound_Path_14" data-name="&lt;Compound Path&gt;" class="cls-1" d="M413.38,365.64c5.84,0,9.42-1.83,11.39-3.8h1.55v2.6c-2.6,2-6.61,4.08-13.29,4.08-11,0-17.16-7.1-17.16-18.49s6.89-18.84,16.24-18.84c9,0,15,5.2,15,17.16,0,.7-.07,1.55-.07,1.69H399.46C399.46,360.3,404.24,365.64,413.38,365.64Zm-13.85-18.28h24.12c-.21-9.77-4.71-13.5-11.53-13.5S400.38,338.36,399.53,347.36Z"/><path id="_Compound_Path_15" data-name="&lt;Compound Path&gt;" class="cls-1" d="M437.92,337.45c4.15-3.3,9.63-6.26,16.1-6.26,5.13,0,9.49,2.11,9.49,9.77v27.28H460V341.39c0-5.84-3.16-7.24-7.31-7.24-5.41,0-10.62,3-14.77,6.19v27.91h-3.52V331.61H436c1.55,0,1.9.42,1.9,3.66Z"/><path id="_Compound_Path_16" data-name="&lt;Compound Path&gt;" class="cls-1" d="M470.69,365.08V362.2h1.41c1.76,1.62,5,3.59,10.27,3.59,6.75,0,10-2.81,10-7.87,0-4.29-2.39-6-9.84-7.24-7-1.12-11.46-3.59-11.46-9.77s5-9.7,12.3-9.7c5.34,0,8.58,1.41,10.62,2.74v2.88h-1.41c-2-1.62-4.43-2.88-9.14-2.88-6,0-9.07,2.25-9.07,6.68,0,4.22,2.46,5.84,9.56,7,7.66,1.2,11.88,3.52,11.88,10,0,6.75-4.15,10.9-13.29,10.9C476.25,368.53,472.8,366.63,470.69,365.08Z"/><path id="_Compound_Path_17" data-name="&lt;Compound Path&gt;" class="cls-1" d="M500.65,365.86a2.69,2.69,0,0,1,2.67-2.74,2.79,2.79,0,0,1,2.74,2.74,2.69,2.69,0,0,1-2.74,2.67A2.59,2.59,0,0,1,500.65,365.86Z"/><path id="_Compound_Path_18" data-name="&lt;Compound Path&gt;" class="cls-1" d="M509.65,349.82c0-11.6,7.17-18.63,17.37-18.63,6,0,9.35,1.83,11.46,3.52v2.81h-1.83c-1.69-1.69-4.5-3.52-9.7-3.52-8.16,0-13.71,5.84-13.71,15.82s5.13,15.89,13.71,15.89c5.7,0,8.86-2.32,10.55-4.22h1.62v2.67c-2,2-6,4.36-12.3,4.36C516,368.53,509.65,361.36,509.65,349.82Z"/><path id="_Compound_Path_19" data-name="&lt;Compound Path&gt;" class="cls-1" d="M543.4,349.89c0-11.53,6.89-18.7,17-18.7s17.09,7.17,17.09,18.7-6.82,18.63-17.09,18.63S543.4,361.5,543.4,349.89Zm30.52,0c0-10-5.13-16-13.5-16s-13.43,6-13.43,16,5.13,15.89,13.43,15.89S573.91,359.95,573.91,349.89Z"/><path id="_Compound_Path_20" data-name="&lt;Compound Path&gt;" class="cls-1" d="M588.4,337.17c3.52-2.81,8.51-6,14.63-6,3.94,0,7.66,1.69,8.72,6,3.73-3.16,8.86-6,14.77-6,5,0,9.07,2.46,9.07,9v28.05h-3.52V341.11c0-5.41-2.6-7-6.82-7-5.2,0-9.42,2.88-13.22,5.91v28.2h-3.52V341.11c0-5.41-2.81-7-6.75-7-5.34,0-9.56,2.81-13.36,6v28.13h-3.52V331.61h1.62c1.55,0,1.9.42,1.9,3.66Z"/></g></g></g></svg>